<?xml version="1.0" standalone="no"?>
<!DOCTYPE svg PUBLIC "-//W3C//DTD SVG 20010904//EN"
 "http://www.w3.org/TR/2001/REC-SVG-20010904/DTD/svg10.dtd">
<svg version="1.0" xmlns="http://www.w3.org/2000/svg"
 width="1080.000000pt" height="1280.000000pt" viewBox="0 0 1080.000000 1280.000000"
 preserveAspectRatio="xMidYMid meet">
<metadata>
Created by potrace 1.15, written by Peter Selinger 2001-2017
</metadata>
<g transform="translate(0.000000,1280.000000) scale(0.100000,-0.100000)"
fill="#009688" stroke="none">
<path d="M4232 12427 l-423 -372 228 -5 228 -5 -55 -26 c-30 -15 -158 -75
-284 -134 -315 -146 -612 -296 -726 -365 -52 -32 -171 -100 -265 -152 -384
-215 -508 -300 -643 -442 -167 -176 -253 -352 -337 -687 -159 -633 -716 -2616
-1265 -4504 -43 -148 -133 -459 -200 -690 -180 -621 -481 -1657 -487 -1671 -3
-8 10 -14 39 -18 37 -5 994 -94 1198 -112 l75 -6 82 243 c204 610 1811 5369
1819 5389 4 8 84 -293 178 -670 l172 -685 1834 0 1834 0 172 685 c94 377 174
678 178 670 7 -18 1523 -4507 1817 -5380 45 -135 83 -247 85 -249 3 -3 396 32
1103 99 112 10 205 20 206 22 3 3 -6 34 -208 728 -64 217 -166 568 -227 780
-128 444 -266 918 -409 1410 -438 1509 -925 3249 -1076 3841 -46 179 -97 361
-115 405 -119 298 -303 497 -645 699 -528 310 -775 442 -1235 658 -151 71
-291 136 -310 146 -34 15 -28 16 193 21 l228 5 -425 373 -425 372 -743 -1
-743 0 -423 -372z m1818 -655 l0 -279 -317 -219 c-175 -120 -325 -219 -334
-218 -8 0 -158 99 -332 219 l-317 219 0 278 0 278 650 0 650 0 0 -278z"/>
<path d="M3670 6990 l0 -330 155 0 155 0 0 330 0 330 -155 0 -155 0 0 -330z"/>
<path d="M4947 7313 c-4 -3 -7 -152 -7 -330 l0 -323 460 0 460 0 0 330 0 330
-453 0 c-250 0 -457 -3 -460 -7z"/>
<path d="M6827 7313 c-4 -3 -7 -152 -7 -330 l0 -323 155 0 155 0 0 330 0 330
-148 0 c-82 0 -152 -3 -155 -7z"/>
<path d="M3535 6498 c-3 -13 -43 -273 -90 -578 -94 -615 -49 -199 -440 -4090
-96 -960 -177 -1764 -180 -1787 l-6 -43 2581 0 2582 0 -6 48 c-4 26 -74 720
-156 1542 -424 4223 -374 3752 -473 4395 l-82 530 -1862 3 -1863 2 -5 -22z"/>
</g>
</svg>
